<svg height="512pt" viewBox="0 -101 512 512" width="512pt" xmlns="http://www.w3.org/2000/svg"><path d="m10.097656 70.980469h163.9375v228.421875h-163.9375zm0 0" fill="#bdd9ff"/><path d="m367.761719 111.660156v187.742188h-193.726563v-187.742188z" fill="#8690a6"/><path d="m367.761719 10.253906h134.140625v289.148438h-134.140625zm0 0" fill="#b5bcc9"/><path d="m44.433594 229.949219h94.925781v35.34375h-94.925781zm0 0" fill="#f9f9f9"/><g fill="#f6f6f6"><path d="m139.359375 105.734375h-26.625l-68.300781 68.300781v22.589844h26.539062l68.386719-68.394531zm0 0"/><path d="m44.433594 105.734375v68.300781l68.300781-68.300781zm0 0"/><path d="m139.359375 128.230469-68.386719 68.394531h68.386719zm0 0"/></g><path d="m174.035156 212.410156h193.726563v86.992188h-193.726563zm0 0" fill="#b5bcc9"/><path d="m210.410156 142.589844h87.226563v39.570312h-87.226563zm0 0" fill="#ffcb7c"/><path d="m335.09375 255.90625c0 9.316406-7.554688 16.867188-16.871094 16.867188s-16.871094-7.550782-16.871094-16.867188 7.554688-16.871094 16.871094-16.871094 16.871094 7.554688 16.871094 16.871094zm0 0" fill="#8690a6"/><path d="m464.871094 215.0625c0 16.589844-13.449219 30.039062-30.039063 30.039062-16.589843 0-30.039062-13.449218-30.039062-30.039062 0-16.59375 13.449219-30.042969 30.039062-30.042969 16.589844 0 30.039063 13.449219 30.039063 30.042969zm0 0" fill="#79b2ff"/><path d="m464.871094 154.671875c0 16.59375-13.449219 30.042969-30.039063 30.042969-16.589843 0-30.039062-13.449219-30.039062-30.042969 0-16.589844 13.449219-30.039063 30.039062-30.039063 16.589844 0 30.039063 13.449219 30.039063 30.039063zm0 0" fill="#79b2ff"/><path d="m464.871094 94.59375c0 16.589844-13.449219 30.039062-30.039063 30.039062-16.589843 0-30.039062-13.449218-30.039062-30.039062 0-16.59375 13.449219-30.042969 30.039062-30.042969 16.589844 0 30.039063 13.449219 30.039063 30.042969zm0 0" fill="#79b2ff"/><path d="m501.902344 309.347656c5.578125 0 10.097656-4.523437 10.097656-10.097656v-289.152344c0-5.578125-4.519531-10.097656-10.097656-10.097656h-134.140625c-5.574219 0-10.097657 4.519531-10.097657 10.097656v91.3125h-85.675781c-12.964843 0-12.984375 20.195313 0 20.195313h85.675781v80.550781h-173.53125v-80.550781h8.078126c12.964843 0 12.984374-20.195313 0-20.195313h-8.078126v-30.582031c0-5.578125-4.523437-10.097656-10.097656-10.097656h-163.9375c-5.578125 0-10.097656 4.519531-10.097656 10.097656v228.417969c0 5.578125 4.519531 10.101562 10.097656 10.101562zm-481.707032-228.421875h143.738282v208.226563h-143.738282zm163.9375 141.429688h173.53125v66.792969h-173.53125zm193.730469-202.160157h113.941407v268.953126h-113.941407zm0 0"/><path d="m139.359375 219.695312h-94.925781c-5.578125 0-10.097656 4.523438-10.097656 10.101563v35.34375c0 5.578125 4.519531 10.097656 10.097656 10.097656h94.925781c5.578125 0 10.101563-4.519531 10.101563-10.097656v-35.34375c0-5.578125-4.523438-10.101563-10.101563-10.101563zm-10.097656 35.347657h-74.730469v-15.148438h74.730469zm0 0"/><path d="m139.359375 95.484375c-31.640625 0-63.285156 0-94.925781 0-5.578125 0-10.097656 4.519531-10.097656 10.097656v90.886719c0 5.578125 4.519531 10.097656 10.097656 10.097656h94.925781c5.578125 0 10.101563-4.519531 10.101563-10.097656v-90.886719c0-5.578125-4.523438-10.097656-10.101563-10.097656zm-84.828125 20.195313h33.820312c-11.273437 11.273437-22.546874 22.546874-33.820312 33.820312zm0 62.382812 62.386719-62.382812h12.34375v8.214843l-62.472657 62.476563h-12.257812zm40.820312 8.308594 33.910157-33.910156v33.910156zm0 0"/><path d="m200.308594 182.007812c0 5.578126 4.523437 10.097657 10.101562 10.097657h87.226563c5.578125 0 10.097656-4.519531 10.097656-10.097657v-39.570312c0-5.578125-4.519531-10.097656-10.097656-10.097656h-87.226563c-5.578125 0-10.101562 4.519531-10.101562 10.097656zm20.199218-29.472656h67.027344v19.375h-67.027344zm0 0"/><path d="m232.601562 121.609375c5.402344 0 10.015626-4.527344 10.082032-9.933594.074218-5.601562-4.515625-10.234375-10.105469-10.238281-5.578125-.007812-10.183594 4.738281-10.066406 10.308594.113281 5.363281 4.734375 9.863281 10.089843 9.863281zm0 0"/><path d="m340.210938 169.367188c4.195312-4.191407 3.769531-11.375-.878907-15.039063-4.335937-3.417969-10.667969-2.667969-14.125 1.609375-3.628906 4.492188-2.59375 11.398438 2.195313 14.640625 4.375 2.964844 9.777344 1.8125 13.351562-1.75-.359375.359375-.722656.71875-1.082031 1.082031.179687-.183594.359375-.363281.539063-.542968 2.980468-2.980469-1.875 1.878906 0 0zm0 0"/><path d="m318.222656 228.785156c-14.871094 0-26.96875 12.097656-26.96875 26.96875s12.097656 26.96875 26.96875 26.96875 26.96875-12.101562 26.96875-26.96875c0-14.871094-12.097656-26.96875-26.96875-26.96875zm0 33.738282c-3.734375 0-6.769531-3.039063-6.769531-6.773438 0-3.730469 3.035156-6.769531 6.769531-6.769531s6.769532 3.039062 6.769532 6.769531c0 3.734375-3.035157 6.773438-6.769532 6.773438zm0 0"/><path d="m265.59375 232.320312h-57.898438c-5.578124 0-10.097656 4.519532-10.097656 10.097657s4.519532 10.097656 10.097656 10.097656h57.898438c5.578125 0 10.097656-4.519531 10.097656-10.097656s-4.519531-10.097657-10.097656-10.097657zm0 0"/><path d="m265.59375 259.65625h-57.898438c-5.578124 0-10.097656 4.523438-10.097656 10.097656 0 5.578125 4.519532 10.101563 10.097656 10.101563h57.898438c5.578125 0 10.097656-4.523438 10.097656-10.101563 0-5.574218-4.519531-10.097656-10.097656-10.097656zm0 0"/><path d="m394.695312 94.4375c0 11.945312 5.25 22.683594 13.554688 30.042969-8.304688 7.359375-13.554688 18.09375-13.554688 30.039062 0 12.027344 5.324219 22.832031 13.734376 30.195313-8.410157 7.363281-13.734376 18.164062-13.734376 30.191406 0 22.132812 18.003907 40.140625 40.136719 40.140625 22.132813 0 40.140625-18.007813 40.140625-40.140625 0-12.027344-5.328125-22.828125-13.738281-30.191406 8.410156-7.363282 13.738281-18.164063 13.738281-30.195313 0-11.945312-5.253906-22.679687-13.558594-30.039062 8.304688-7.359375 13.558594-18.097657 13.558594-30.042969 0-22.132812-18.007812-40.136719-40.140625-40.136719-22.132812 0-40.136719 18.007813-40.136719 40.136719zm40.136719 140.410156c-10.996093 0-19.941406-8.945312-19.941406-19.941406s8.945313-19.941406 19.941406-19.941406c10.996094 0 19.941407 8.945312 19.941407 19.941406s-8.945313 19.941406-19.941407 19.941406zm19.941407-80.328125c0 10.996094-8.945313 19.941407-19.941407 19.941407-10.996093 0-19.941406-8.945313-19.941406-19.941407 0-10.996093 8.945313-19.941406 19.941406-19.941406 10.996094 0 19.941407 8.945313 19.941407 19.941406zm-19.941407-80.023437c10.996094 0 19.941407 8.945312 19.941407 19.941406 0 11-8.945313 19.945312-19.941407 19.945312-10.996093 0-19.941406-8.945312-19.941406-19.945312 0-10.996094 8.945313-19.941406 19.941406-19.941406zm0 0"/><path d="m397.210938 50.375c5.398437 0 10.011718-4.523438 10.082031-9.929688.070312-5.597656-4.519531-10.230468-10.105469-10.234374-5.574219-.007813-10.183594 4.734374-10.070312 10.308593.113281 5.359375 4.738281 9.855469 10.09375 9.855469zm0 0"/><path d="m474.636719 50.375c5.398437 0 10.007812-4.523438 10.078125-9.925781.074218-5.601563-4.515625-10.230469-10.105469-10.238281-5.570313-.007813-10.179687 4.734374-10.066406 10.304687.113281 5.359375 4.738281 9.859375 10.09375 9.859375zm0 0"/><path d="m474.636719 260.507812c-5.402344 0-10.011719 4.523438-10.082031 9.925782-.074219 5.601562 4.515624 10.230468 10.105468 10.238281 5.570313.003906 10.183594-4.734375 10.066406-10.304687-.113281-5.363282-4.734374-9.859376-10.089843-9.859376zm0 0"/><path d="m397.210938 280.703125c5.402343 0 10.011718-4.519531 10.078124-9.925781.074219-5.609375-4.507812-10.230469-10.101562-10.238282-5.574219-.011718-10.1875 4.730469-10.070312 10.304688.113281 5.359375 4.738281 9.859375 10.09375 9.859375zm0 0"/><path d="m434.835938 166.175781c5.398437 0 10.011718-4.523437 10.082031-9.925781.074219-5.605469-4.519531-10.230469-10.109375-10.238281-5.574219-.007813-10.179688 4.726562-10.0625 10.304687.109375 5.363282 4.726562 9.859375 10.089844 9.859375zm0 0"/><path d="m434.835938 106.058594c5.402343 0 10.007812-4.511719 10.082031-9.917969.074219-5.613281-4.515625-10.230469-10.109375-10.238281-5.578125-.007813-10.179688 4.726562-10.0625 10.304687.109375 5.367188 4.730468 9.851563 10.089844 9.851563zm0 0"/><path d="m434.835938 206.339844c-5.402344 0-10.011719 4.519531-10.082032 9.925781-.070312 5.601563 4.519532 10.230469 10.105469 10.234375 5.570313.007812 10.183594-4.730469 10.066406-10.300781-.109375-5.363281-4.734375-9.859375-10.089843-9.859375zm0 0"/></svg>