<svg height="464pt" viewBox="-48 0 464 464" width="464pt" xmlns="http://www.w3.org/2000/svg"><path d="m192 240h-96v-112h96zm0 0" fill="#df6437"/><path d="m192 144h64v64h-32v-32h-32zm0 0" fill="#f9bb4b"/><path d="m64 176h64v-32c0-8.835938 7.164062-16 16-16s16 7.164062 16 16v64h-96zm0 0" fill="#f9bb4b"/><path d="m192 96h-96v-96h96zm0 0" fill="#ffd782"/><path d="m192 32h-96v-32h96zm0 0" fill="#394d5c"/><path d="m0 400h288v32h-288zm0 0" fill="#995f5b"/><path d="m80 448c0 8.835938-7.164062 16-16 16s-16-7.164062-16-16 7.164062-16 16-16 16 7.164062 16 16zm0 0" fill="#5a6470"/><path d="m240 448c0 8.835938-7.164062 16-16 16s-16-7.164062-16-16 7.164062-16 16-16 16 7.164062 16 16zm0 0" fill="#5a6470"/><g fill="#cfdfe8"><path d="m240 232h128v16h-128zm0 0"/><path d="m224 264h88v16h-88zm0 0"/><path d="m240 32h128v16h-128zm0 0"/><path d="m224 64h88v16h-88zm0 0"/><path d="m280 312h72v16h-72zm0 0"/><path d="m328 264h16v16h-16zm0 0"/></g><path d="m176 240v56l48 24v32l-80-40v-72zm0 0" fill="#c8d952"/><path d="m144 240v32l-32 32v64h-32v-80l48-48zm0 0" fill="#67c086"/><path d="m112 400h-64v-32h64zm0 0" fill="#394d5c"/><path d="m256 368h-32v-48h32zm0 0" fill="#394d5c"/></svg>